<svg width="100" height="113" viewBox="0 0 100 113" fill="none" xmlns="http://www.w3.org/2000/svg">
<path d="M86.0529 0C77.4683 0 70.5093 6.95906 70.5093 15.5437V46.4119H99.399V13.3461C99.399 5.97521 93.4238 0 86.0529 0V0Z" fill="#3B7CF2"/>
<path d="M72.7068 13.3461C72.7068 5.97521 78.682 0 86.0529 0H16.4774C7.39176 0 0 7.39177 0 16.4774V109.16C0 112.133 3.63083 113.577 5.67722 111.44L9.89392 107.036L14.3486 111.491C15.6358 112.778 17.7228 112.778 19.0099 111.491L23.2312 107.271L27.4978 111.501C28.7832 112.775 30.8546 112.775 32.1395 111.501L36.471 107.207L40.8044 111.501C42.0884 112.774 44.1583 112.775 45.4432 111.503L49.6184 107.372L53.7826 111.501C55.0677 112.775 57.1394 112.775 58.4245 111.501L62.756 107.207L67.0893 111.501C69.1665 113.56 72.7061 112.083 72.7061 109.16C72.7068 104.595 72.7068 16.2082 72.7068 13.3461Z" fill="#B7CDF7" fill-opacity="0.96"/>
<path d="M86.0529 0C78.6822 0 72.707 5.97521 72.707 13.3459V109.16C72.707 112.083 69.1667 113.56 67.09 111.501L62.7564 107.207L58.425 111.501C57.1394 112.775 55.0693 112.775 53.7837 111.501L49.6193 107.371L45.4439 111.503C44.1583 112.775 42.0882 112.775 40.8048 111.501L36.4712 107.207V0H86.0529Z" fill="#5C91F1"/>
<path d="M39.5148 45.9602V46.6326C39.5148 48.3665 38.1743 49.7906 36.4712 49.918V39.9168C38.9213 39.6907 40.5303 36.9569 38.2864 35.2052C37.7875 34.8163 37.1656 34.4976 36.4712 34.1966V27.0808C38.1633 27.7906 40.4268 28.518 42.3387 30.0058C48.5952 34.8822 46.1999 43.6439 39.5148 45.9602Z" fill="#D0D0F4"/>
<path d="M38.7721 23.7689C38.3216 23.3536 37.3744 23.0921 36.4712 23.0943V13.3546C38.1743 13.4821 39.5148 14.9061 39.5148 16.64V16.9125C40.9191 17.3059 42.2179 17.9783 43.2419 18.9233C44.5802 20.1583 44.666 22.2438 43.4309 23.5821C42.1959 24.9205 40.1104 25.004 38.7721 23.7689Z" fill="#D0D0F4"/>
<path d="M16.6919 62.8683H33.1737C34.9942 62.8683 36.4701 61.3924 36.4701 59.5719C36.4701 57.7515 34.9942 56.2756 33.1737 56.2756H16.6919C14.8714 56.2756 13.3955 57.7515 13.3955 59.5719C13.3955 61.3924 14.8714 62.8683 16.6919 62.8683Z" fill="#5C91F1"/>
<path d="M33.1725 69.4829H16.6797C14.8592 69.4829 13.3833 70.9588 13.3833 72.7793C13.3833 74.5997 14.8592 76.0756 16.6797 76.0756H33.1725C34.9929 76.0756 36.4688 74.5997 36.4688 72.7793C36.4688 70.9588 34.9929 69.4829 33.1725 69.4829Z" fill="#5C91F1"/>
<path d="M33.1722 82.6465H16.6684C14.848 82.6465 13.3721 84.1224 13.3721 85.9428C13.3721 87.7633 14.848 89.2392 16.6684 89.2392H33.1722C34.9927 89.2392 36.4686 87.7633 36.4686 85.9428C36.4686 84.1224 34.9927 82.6465 33.1722 82.6465Z" fill="#5C91F1"/>
<path d="M69.512 112.516C85.8968 112.516 99.1793 99.2335 99.1793 82.8487C99.1793 66.4639 85.8968 53.1814 69.512 53.1814C53.1272 53.1814 39.8447 66.4639 39.8447 82.8487C39.8447 99.2335 53.1272 112.516 69.512 112.516Z" fill="#FFB454"/>
<path d="M99.1785 82.8487C99.1785 99.2074 85.87 112.516 69.5112 112.516V53.1814C85.87 53.1814 99.1785 66.4899 99.1785 82.8487Z" fill="#FFB454"/>
<path d="M69.512 105.923C82.2558 105.923 92.5866 95.5923 92.5866 82.8486C92.5866 70.1049 82.2558 59.774 69.512 59.774C56.7683 59.774 46.4375 70.1049 46.4375 82.8486C46.4375 95.5923 56.7683 105.923 69.512 105.923Z" fill="#FFE278"/>
<path d="M92.5858 82.8486C92.5858 95.5726 82.2352 105.923 69.5112 105.923V59.774C82.2352 59.774 92.5858 70.1246 92.5858 82.8486Z" fill="#FFE278"/>
<path d="M70.6105 70.4019C68.79 70.4019 67.3141 71.8778 67.3141 73.6983V80.4312H60.6418C58.8214 80.4312 57.3455 81.9071 57.3455 83.7276C57.3455 85.548 58.8214 87.0239 60.6418 87.0239H70.6105C72.4309 87.0239 73.9068 85.548 73.9068 83.7276V73.6983C73.9068 71.8778 72.4309 70.4019 70.6105 70.4019Z" fill="#FF8A66"/>
<path d="M73.9064 73.698V83.7277C73.9064 85.5473 72.4318 87.0241 70.61 87.0241H69.5112V70.5906C69.8562 70.4675 70.2254 70.4016 70.61 70.4016C72.4318 70.4016 73.9064 71.8784 73.9064 73.698Z" fill="#F97658"/>
<path d="M42.3376 30.0057C39.1838 27.548 35.0689 27.1665 34.1499 25.5073C33.8255 24.9216 34.1712 23.9571 34.8751 23.4838C35.8767 22.8102 38.0196 23.0757 38.7725 23.7701C40.1108 25.0047 42.1963 24.9201 43.4304 23.582C44.6648 22.2437 44.5804 20.1582 43.2423 18.924C42.2183 17.9795 40.9193 17.3055 39.515 16.9121V16.6403C39.515 14.8198 38.0391 13.3439 36.2187 13.3439C34.3982 13.3439 32.9223 14.8198 32.9223 16.6403V17.1328C28.1309 18.9282 26.0729 24.5311 28.3828 28.7017C30.8216 33.1045 35.9299 33.3702 38.2853 35.2059C40.331 36.8002 39.1179 38.9213 37.5992 39.6359C36.238 40.2763 33.5011 39.8805 31.8578 38.8055C30.3344 37.8091 28.2911 38.2361 27.2947 39.7594C26.2981 41.283 26.7254 43.3259 28.2487 44.3225C29.5295 45.1604 31.1671 45.8362 32.9225 46.2124V46.6317C32.9225 48.4522 34.3984 49.9281 36.2189 49.9281C38.0393 49.9281 39.5152 48.4522 39.5152 46.6317V45.959C46.1987 43.6434 48.5943 34.8813 42.3376 30.0057Z" fill="#3B7CF2"/>
</svg>
