<svg width="30" height="25" viewBox="0 0 30 25" fill="none" xmlns="http://www.w3.org/2000/svg">
<path d="M24.706 2.35823V17.6471H12.353V0H22.3477C23.6483 0 24.706 1.05765 24.706 2.35823Z" fill="#B40042"/>
<path d="M12.3529 0V17.6471H2.35823C1.05765 17.6471 0 16.5894 0 15.2888V2.35823C0 1.05765 1.05765 0 2.35823 0H12.3529Z" fill="#FF415B"/>
<path d="M7.49107 5.29407H5.15625C4.25925 5.29407 3.52954 6.02377 3.52954 6.92077V8.96148C3.52954 9.85848 4.25925 10.5882 5.15625 10.5882H7.49107C8.38807 10.5882 9.11777 9.85848 9.11777 8.96148V6.92077C9.11777 6.02377 8.38807 5.29407 7.49107 5.29407Z" fill="#FFDD55"/>
<path d="M3.52954 12.3529H7.05895V14.1176H3.52954V12.3529Z" fill="#FF8859"/>
<path d="M8.82349 12.3529H12.3529V14.1176H8.82349V12.3529Z" fill="#FF8859"/>
<path d="M14.1177 12.3529H17.6471V14.1176H14.1177V12.3529Z" fill="#FF415B"/>
<path d="M28.2351 11.3864V13.2352H26.4704V11.3864C26.4704 9.76466 25.151 8.44525 23.5293 8.44525L23.1562 7.64701L23.5293 6.68054C26.124 6.68054 28.2351 8.79172 28.2351 11.3864Z" fill="#B4D2D7"/>
<path d="M23.5294 6.68054V8.44525C21.9076 8.44525 20.5882 9.76466 20.5882 11.3864V13.2352H18.8235V11.3864C18.8235 8.79172 20.9347 6.68054 23.5294 6.68054Z" fill="#E1EBF0"/>
<path d="M30.0001 12.3529V18.5294C30.0001 22.097 27.0972 25 23.5295 25V12.3529H30.0001Z" fill="#FFDA44"/>
<path d="M23.5294 12.3529V25C19.9618 25 17.0588 22.097 17.0588 18.5294V12.3529H23.5294Z" fill="#FFF68E"/>
<path d="M26.4722 17.4207L23.5293 20.0695L23.1562 18.8595L23.5293 17.6954L25.2922 16.1089L26.4722 17.4207Z" fill="#FF9F22"/>
<path d="M23.5295 17.6953V20.0694L22.9095 20.6277L20.5525 18.2712L21.8007 17.0229L22.9731 18.1959L23.5295 17.6953Z" fill="#FFDA44"/>
</svg>
