<svg width="30" height="30" viewBox="0 0 30 30" fill="none" xmlns="http://www.w3.org/2000/svg">
<path d="M14.4152 27.9718H0.603622C0.270242 27.9718 0 27.7016 0 27.3682V5.38756C0 5.05418 0.270242 4.78394 0.603622 4.78394H14.4152C14.7486 4.78394 15.0188 5.05418 15.0188 5.38756V27.3681C15.0188 27.7015 14.7486 27.9718 14.4152 27.9718Z" fill="#E1EBF0"/>
<path d="M15.0188 5.38756V25.8817C15.0188 26.2151 14.7486 26.4853 14.4152 26.4853H2.08141C1.74802 26.4853 1.47778 26.2151 1.47778 25.8817V5.38756C1.47778 5.05418 1.74802 4.78394 2.08141 4.78394H14.4152C14.7486 4.78394 15.0188 5.05418 15.0188 5.38756Z" fill="#D2E4E7"/>
<path d="M14.7688 5.38756V25.8817C14.7688 26.077 14.6105 26.2353 14.4152 26.2353H2.08141C1.8861 26.2353 1.72778 26.077 1.72778 25.8817V5.38756C1.72778 5.19225 1.8861 5.03394 2.08141 5.03394H14.4152C14.6105 5.03394 14.7688 5.19225 14.7688 5.38756Z" stroke="black" stroke-opacity="0.26" stroke-width="0.5"/>
<path d="M19.216 25.58H2.98643C2.65305 25.58 2.38281 25.3098 2.38281 24.9764V2.99583C2.38281 2.66245 2.65305 2.39221 2.98643 2.39221H19.216C19.5494 2.39221 19.8196 2.66245 19.8196 2.99583V24.9764C19.8196 25.3098 19.5493 25.58 19.216 25.58Z" fill="#E1EBF0"/>
<path d="M19.216 25.33H2.98643C2.79113 25.33 2.63281 25.1717 2.63281 24.9764V2.99583C2.63281 2.80052 2.79113 2.64221 2.98643 2.64221H19.216C19.4113 2.64221 19.5696 2.80052 19.5696 2.99583V24.9764C19.5696 24.9764 19.5696 24.9764 19.5696 24.9764C19.5696 25.1718 19.4112 25.33 19.216 25.33Z" stroke="black" stroke-opacity="0.26" stroke-width="0.5"/>
<path d="M19.8201 2.99596V23.4901C19.8201 23.8235 19.5499 24.0937 19.2165 24.0937H4.46397C4.13059 24.0937 3.86035 23.8235 3.86035 23.4901V2.99596C3.86035 2.66258 4.13059 2.39233 4.46397 2.39233H19.2165C19.5499 2.39233 19.8201 2.66258 19.8201 2.99596Z" fill="#D2E4E7"/>
<path d="M19.5701 2.99596V23.4901C19.5701 23.6854 19.4118 23.8437 19.2165 23.8437H4.46397C4.26866 23.8437 4.11035 23.6854 4.11035 23.4901V2.99596C4.11035 2.80065 4.26866 2.64233 4.46397 2.64233H19.2165C19.4118 2.64233 19.5701 2.80065 19.5701 2.99596Z" stroke="black" stroke-opacity="0.26" stroke-width="0.5"/>
<path d="M4.76562 22.5845V0.603622C4.76562 0.270242 5.03587 0 5.36925 0H21.5988C21.9322 0 22.2025 0.270242 22.2025 0.603622V22.5845C22.2025 22.9179 21.9322 23.1881 21.5988 23.1881H5.36925C5.03587 23.1881 4.76562 22.9179 4.76562 22.5845Z" fill="#E1EBF0"/>
<path d="M5.01562 22.5845V0.603622C5.01562 0.408313 5.17394 0.25 5.36925 0.25H21.5988C21.7941 0.25 21.9525 0.408313 21.9525 0.603622V22.5845C21.9525 22.7798 21.7941 22.9381 21.5988 22.9381H5.36925C5.17394 22.9381 5.01562 22.7798 5.01562 22.5845Z" stroke="black" stroke-opacity="0.26" stroke-width="0.5"/>
<path d="M15.16 8.16083H19.9388C20.1054 8.16083 20.2406 8.02568 20.2406 7.85902V3.05962C20.2406 2.89296 20.1054 2.75781 19.9388 2.75781H15.16C14.9933 2.75781 14.8582 2.89296 14.8582 3.05962V7.85902C14.8582 8.02568 14.9932 8.16083 15.16 8.16083Z" fill="#F3D332"/>
<path d="M16.3667 8.16095H15.1595C14.9929 8.16095 14.8577 8.02574 14.8577 7.85914V3.05975C14.8577 2.89315 14.9929 2.75793 15.1595 2.75793H16.3667C16.2001 2.75793 16.0649 2.89315 16.0649 3.05975V7.85914C16.0649 8.02574 16.2001 8.16095 16.3667 8.16095Z" fill="#ECC52E"/>
<path d="M12.8952 7.882H6.72786C6.47778 7.882 6.27515 7.67936 6.27515 7.42928C6.27515 7.1792 6.47778 6.97656 6.72786 6.97656H12.8952C13.1453 6.97656 13.348 7.1792 13.348 7.42928C13.348 7.67936 13.1453 7.882 12.8952 7.882Z" fill="#929394"/>
<path d="M16.5958 11.7091H10.3724C10.1223 11.7091 9.91968 11.5065 9.91968 11.2564C9.91968 11.0063 10.1223 10.8037 10.3724 10.8037H16.5958C16.8459 10.8037 17.0485 11.0063 17.0485 11.2564C17.0485 11.5065 16.8458 11.7091 16.5958 11.7091Z" fill="#929394"/>
<path d="M12.8952 5.9119H6.72786C6.47778 5.9119 6.27515 5.70927 6.27515 5.45919C6.27515 5.20911 6.47778 5.00647 6.72786 5.00647H12.8952C13.1453 5.00647 13.348 5.20911 13.348 5.45919C13.348 5.70927 13.1453 5.9119 12.8952 5.9119Z" fill="#929394"/>
<path d="M12.8952 3.9423H6.72786C6.47778 3.9423 6.27515 3.73966 6.27515 3.48958C6.27515 3.2395 6.47778 3.03687 6.72786 3.03687H12.8952C13.1453 3.03687 13.348 3.2395 13.348 3.48958C13.348 3.73966 13.1453 3.9423 12.8952 3.9423Z" fill="#929394"/>
<path d="M16.0149 16.7179H6.72786C6.47778 16.7179 6.27515 16.5153 6.27515 16.2652C6.27515 16.0151 6.47778 15.8125 6.72786 15.8125H16.0149C16.265 15.8125 16.4676 16.0151 16.4676 16.2652C16.4676 16.5153 16.265 16.7179 16.0149 16.7179Z" fill="#929394"/>
<path d="M14.0726 14.1853H6.72786C6.47778 14.1853 6.27515 13.9827 6.27515 13.7326C6.27515 13.4825 6.47778 13.2799 6.72786 13.2799H14.0726C14.3227 13.2799 14.5253 13.4825 14.5253 13.7326C14.5253 13.9827 14.3226 14.1853 14.0726 14.1853Z" fill="#929394"/>
<path d="M20.2683 14.1853H16.0352C15.7852 14.1853 15.5825 13.9827 15.5825 13.7326C15.5825 13.4825 15.7852 13.2799 16.0352 13.2799H20.2683C20.5184 13.2799 20.721 13.4825 20.721 13.7326C20.721 13.9827 20.5184 14.1853 20.2683 14.1853Z" fill="#929394"/>
<path d="M23.8413 19.3607C24.1747 19.3607 24.4449 19.631 24.4449 19.9643V20.3742C24.4449 21.9279 23.19 23.1883 21.6417 23.1883L12.4892 23.4901L7.5127 23.1883C9.06099 23.1883 10.3165 21.9279 10.3165 20.3742V19.9643C10.3165 19.631 10.5868 19.3607 10.9201 19.3607H23.8413Z" fill="#D2E4E7"/>
<path d="M21.6417 22.9383V22.9381L21.6334 22.9384L12.4927 23.2398L9.03619 23.0302C9.95103 22.5007 10.5665 21.509 10.5665 20.3742V19.9643C10.5665 19.769 10.7248 19.6107 10.9201 19.6107H23.8413C24.0366 19.6107 24.1949 19.769 24.1949 19.9643V20.3742C24.1949 21.7908 23.0509 22.9383 21.6417 22.9383Z" stroke="black" stroke-opacity="0.26" stroke-width="0.5"/>
<path d="M22.2026 15.5295V19.3607H15.9116C17 17.0409 19.3456 15.524 21.9424 15.524C22.0293 15.524 22.1163 15.5259 22.2026 15.5295Z" fill="#D2E4E7"/>
<path d="M19.82 19.3607V23.4901C19.82 23.8233 19.5496 24.0937 19.2164 24.0937H15.5512C15.4836 23.8655 15.4286 23.6326 15.3858 23.3947C15.3158 23.0084 15.2795 22.61 15.2795 22.2038C15.2795 21.4438 15.4057 20.6977 15.6556 19.9861C15.731 19.7718 15.8162 19.5635 15.9115 19.3607H19.82Z" fill="#B4D2D7"/>
<path d="M26.5422 25.1465L29.6065 27.8731C30.1144 28.3739 30.133 29.1723 29.6481 29.6528C29.1639 30.1326 28.3618 30.1126 27.859 29.6082L24.7983 26.8669L26.5422 25.1465Z" fill="#F3D332"/>
<path d="M27.4515 25.9556C26.9885 26.6371 26.4024 27.2286 25.7264 27.6976L24.7986 26.867L26.5424 25.1461L27.4515 25.9556Z" fill="#ECC52E"/>
<path d="M19.8198 23.4899V24.976C19.8198 25.3092 19.5494 25.5796 19.2162 25.5796H16.1951C15.9229 25.1172 15.7056 24.6186 15.551 24.0935H19.2162C19.5494 24.0935 19.8198 23.8231 19.8198 23.4899Z" fill="#D2E4E7"/>
<path d="M16.4863 22.2038C16.4863 21.5665 16.5949 20.9547 16.7946 20.3858C17.5418 18.2572 19.5642 16.7314 21.9418 16.7314C24.9548 16.7314 27.3973 19.1815 27.3973 22.2038C27.3973 25.226 24.9548 27.6761 21.9418 27.6761C18.9288 27.6761 16.4863 25.2261 16.4863 22.2038Z" fill="#30579D"/>
<path d="M26.1207 25.7203C25.1211 26.9161 23.6199 27.6761 21.9419 27.6761C18.9286 27.6761 16.4863 25.226 16.4863 22.2036C16.4863 21.5662 16.595 20.9547 16.7942 20.3855C17.1636 19.3334 17.8451 18.4286 18.727 17.7827C18.3099 18.2807 17.9797 18.8541 17.76 19.4801C17.5608 20.0493 17.4521 20.6608 17.4521 21.2982C17.4521 24.3205 19.8944 26.7706 22.9077 26.7706C24.1089 26.7706 25.2195 26.3807 26.1207 25.7203Z" fill="#30569F"/>
<path d="M18.5359 22.2039C18.5359 21.806 18.6037 21.424 18.7284 21.0689C19.1949 19.7398 20.4576 18.7872 21.9421 18.7872C23.8233 18.7872 25.3482 20.3169 25.3482 22.2039C25.3482 24.0909 23.8233 25.6206 21.9421 25.6206C20.0609 25.6206 18.5359 24.0909 18.5359 22.2039Z" fill="#E1EBF0"/>
<path d="M24.8739 23.9425C24.2812 24.9469 23.1898 25.62 21.9421 25.62C20.0606 25.62 18.5359 24.0904 18.5359 22.2035C18.5359 21.8057 18.6035 21.4236 18.7284 21.0687C18.9971 20.3033 19.5295 19.6628 20.217 19.2572C20.1041 19.4473 20.0099 19.6496 19.9357 19.8614C19.8107 20.2164 19.7431 20.5985 19.7431 20.9962C19.7431 22.8832 21.2679 24.4127 23.1494 24.4127C23.779 24.4127 24.3681 24.2413 24.8739 23.9425Z" fill="#D2E4E7"/>
</svg>
