<svg width="110" height="125" viewBox="0 0 110 125" fill="none" xmlns="http://www.w3.org/2000/svg">
<path d="M95.2304 0C85.7303 0 78.0291 7.70124 78.0291 17.2014V51.3617H110V14.7694C110 6.61246 103.387 0 95.2304 0V0Z" fill="#3B7CF2"/>
<path d="M80.4609 14.7694C80.4609 6.61246 87.0734 0 95.2304 0H18.2347C8.18009 0 0 8.18009 0 18.2347V120.802C0 124.092 4.01806 125.69 6.28269 123.325L10.9491 118.452L15.8789 123.381C17.3033 124.806 19.6129 124.806 21.0373 123.382L25.7088 118.712L30.4305 123.393C31.8529 124.803 34.1453 124.802 35.5672 123.393L40.3606 118.64L45.1561 123.393C46.5771 124.801 48.8678 124.802 50.2897 123.395L54.9102 118.823L59.5185 123.392C60.9407 124.802 63.2333 124.802 64.6555 123.393L69.4488 118.64L74.2444 123.393C76.5431 125.671 80.4602 124.037 80.4602 120.802C80.4609 115.75 80.4609 17.9368 80.4609 14.7694V14.7694Z" fill="#B7CDF7" fill-opacity="0.96"/>
<path d="M95.2304 0C87.0737 0 80.4612 6.61246 80.4612 14.7692V120.802C80.4612 124.037 76.5433 125.671 74.2451 123.392L69.4493 118.64L64.656 123.392C63.2333 124.803 60.9424 124.803 59.5197 123.392L54.9112 118.822L50.2905 123.395C48.8678 124.803 46.5769 124.803 45.1566 123.392L40.3608 118.64V0H95.2304Z" fill="#5C91F1"/>
<path d="M43.7291 50.8618V51.606C43.7291 53.5248 42.2456 55.1007 40.3608 55.2418V44.174C43.0722 43.9237 44.8529 40.8984 42.3696 38.9599C41.8176 38.5294 41.1293 38.1768 40.3608 37.8436V29.969C42.2334 30.7545 44.7383 31.5595 46.8541 33.2059C53.7779 38.6024 51.1271 48.2986 43.7291 50.8618Z" fill="#D0D0F4"/>
<path d="M42.9071 26.3039C42.4085 25.8442 41.3604 25.5548 40.3608 25.5573V14.7789C42.2456 14.9199 43.7291 16.4958 43.7291 18.4146V18.7162C45.2831 19.1515 46.7204 19.8957 47.8537 20.9414C49.3347 22.3082 49.4296 24.6161 48.0628 26.0971C46.6961 27.5782 44.3881 27.6706 42.9071 26.3039V26.3039Z" fill="#D0D0F4"/>
<path d="M18.4721 69.5732H36.7117C38.7264 69.5732 40.3597 67.9399 40.3597 65.9253C40.3597 63.9106 38.7264 62.2773 36.7117 62.2773H18.4721C16.4575 62.2773 14.8242 63.9106 14.8242 65.9253C14.8242 67.9399 16.4575 69.5732 18.4721 69.5732Z" fill="#5C91F1"/>
<path d="M36.7102 76.8932H18.4585C16.4438 76.8932 14.8105 78.5265 14.8105 80.5412C14.8105 82.5558 16.4438 84.1891 18.4585 84.1891H36.7102C38.7248 84.1891 40.3581 82.5558 40.3581 80.5412C40.3581 78.5265 38.7248 76.8932 36.7102 76.8932Z" fill="#5C91F1"/>
<path d="M36.7099 91.4607H18.446C16.4314 91.4607 14.7981 93.094 14.7981 95.1086C14.7981 97.1232 16.4314 98.7565 18.446 98.7565H36.7099C38.7246 98.7565 40.3578 97.1232 40.3578 95.1086C40.3578 93.094 38.7246 91.4607 36.7099 91.4607Z" fill="#5C91F1"/>
<path d="M76.9255 124.516C95.0577 124.516 109.757 109.817 109.757 91.6844C109.757 73.5522 95.0577 58.8531 76.9255 58.8531C58.7933 58.8531 44.0942 73.5522 44.0942 91.6844C44.0942 109.817 58.7933 124.516 76.9255 124.516Z" fill="#FFB454"/>
<path d="M109.756 91.6844C109.756 109.788 95.028 124.516 76.9246 124.516V58.8531C95.028 58.8531 109.756 73.581 109.756 91.6844Z" fill="#FFB454"/>
<path d="M76.9256 117.22C91.0284 117.22 102.461 105.787 102.461 91.6844C102.461 77.5815 91.0284 66.1489 76.9256 66.1489C62.8227 66.1489 51.3901 77.5815 51.3901 91.6844C51.3901 105.787 62.8227 117.22 76.9256 117.22Z" fill="#FFE278"/>
<path d="M102.46 91.6844C102.46 105.765 91.0055 117.22 76.9246 117.22V66.1489C91.0055 66.1489 102.46 77.6034 102.46 91.6844Z" fill="#FFE278"/>
<path d="M78.1411 77.9103C76.1265 77.9103 74.4932 79.5436 74.4932 81.5582V89.0092H67.1093C65.0947 89.0092 63.4614 90.6425 63.4614 92.6571C63.4614 94.6717 65.0947 96.305 67.1093 96.305H78.1411C80.1558 96.305 81.7891 94.6717 81.7891 92.6571V81.5582C81.7891 79.5436 80.1558 77.9103 78.1411 77.9103Z" fill="#FF8A66"/>
<path d="M81.7885 81.5578V92.6572C81.7885 94.6709 80.1566 96.3052 78.1405 96.3052H76.9246V78.1191C77.3064 77.9829 77.7149 77.9099 78.1405 77.9099C80.1566 77.9099 81.7885 79.5442 81.7885 81.5578Z" fill="#F97658"/>
<path d="M46.8528 33.2058C43.3627 30.4859 38.8089 30.0637 37.7919 28.2276C37.4329 27.5795 37.8155 26.5121 38.5944 25.9883C39.7029 25.2429 42.0743 25.5367 42.9075 26.3052C44.3885 27.6714 46.6964 27.5778 48.0622 26.097C49.4282 24.6159 49.3349 22.308 47.854 20.9422C46.7208 19.897 45.2832 19.1511 43.7292 18.7158V18.4149C43.7292 16.4003 42.0959 14.767 40.0813 14.767C38.0667 14.767 36.4334 16.4003 36.4334 18.4149V18.9599C31.131 20.9468 28.8535 27.1473 31.4097 31.7627C34.1087 36.6351 39.7617 36.9291 42.3683 38.9605C44.6322 40.7249 43.2898 43.0722 41.609 43.8631C40.1027 44.5717 37.074 44.1337 35.2553 42.944C33.5695 41.8414 31.3083 42.3139 30.2057 43.9997C29.1028 45.6858 29.5755 47.9466 31.2614 49.0494C32.6787 49.9767 34.491 50.7246 36.4336 51.1409V51.6049C36.4336 53.6196 38.0669 55.2528 40.0815 55.2528C42.0962 55.2528 43.7295 53.6196 43.7295 51.6049V50.8605C51.1257 48.298 53.7768 38.6013 46.8528 33.2058V33.2058Z" fill="#3B7CF2"/>
</svg>
