<svg width="20" height="30" viewBox="0 0 20 30" fill="none" xmlns="http://www.w3.org/2000/svg">
<path d="M19.9117 26.9305V29.4828C19.9117 29.7685 19.6803 30 19.3946 30H0.517188C0.231442 30 0 29.7685 0 29.4828V26.9305C0 24.2644 2.18124 22.1497 4.84735 22.1239C5.72896 22.1145 6.52782 21.6805 7.0176 20.9815C7.55302 20.2166 7.49923 19.5276 7.49923 19.0097L7.50893 18.9858C5.18804 18.0251 3.55567 15.7385 3.55567 13.0705C3.55567 13.0705 3.55567 12.9974 3.55567 12.8681C3.00887 12.8681 2.54114 12.6137 2.24848 12.2178C2.24848 12.2171 2.24783 12.2171 2.24783 12.2165C2.07341 11.9961 1.93946 11.6449 1.93946 11.2817V4.98101C1.93946 4.0171 2.72106 3.2355 3.68497 3.2355C4.46463 1.28751 6.35107 0.0030742 8.45926 0.0030742C11.5356 0.0030742 13.5128 -0.0199407 13.6777 0.0625508C13.7165 0.0684339 14.073 0.131919 14.1011 0.145947C14.6125 0.263478 15.1782 0.524206 15.204 0.550001C16.8843 1.3956 18.0369 3.13594 18.0369 5.14522V11.1873C18.0369 12.1156 17.2844 12.8681 16.3561 12.8681V13.0705C16.3561 15.7385 14.7237 18.0251 12.4028 18.9858L12.4125 19.0097C12.4125 19.5128 12.3544 20.2105 12.8941 20.9815C13.3826 21.6786 14.1803 22.1145 15.0644 22.1239C17.7305 22.1497 19.9117 24.2644 19.9117 26.9305Z" fill="#FFDFBA"/>
<path d="M18.037 5.14509V11.1871C18.037 12.1155 17.2845 12.868 16.3561 12.868V9.28842C16.3561 9.01495 16.1434 8.78869 15.8706 8.77252C12.8393 8.59177 9.80406 7.66949 7.07065 5.94221C6.77327 5.75408 6.38215 5.90924 6.29164 6.24929C6.15652 6.76066 5.85268 7.41555 5.17193 7.82542C4.5458 8.20232 4.06113 8.12785 3.87896 8.20297C3.68824 8.27925 3.55571 8.46544 3.55571 8.68137V12.868C3.00892 12.868 2.54118 12.6136 2.24852 12.2176C2.24852 12.217 2.24787 12.217 2.24787 12.2164C2.13196 12.0699 2.0163 11.8292 1.96859 11.5828C1.92702 11.3714 1.9395 11.8484 1.9395 4.98089C1.9395 4.01698 2.7211 3.23538 3.68501 3.23538C4.46066 1.29741 6.34155 0.00295213 8.4593 0.00295213C11.5357 0.00295213 13.5128 -0.0200627 13.6777 0.0624288C14.1793 0.138455 14.6738 0.296456 15.0683 0.483937C15.076 0.487751 15.199 0.544836 15.2041 0.549879C16.8843 1.39548 18.037 3.13582 18.037 5.14509Z" fill="#42434D"/>
<path d="M19.9117 26.9305V29.4828C19.9117 29.7686 19.6803 30 19.3946 30H0.517188C0.231442 30 0 29.7686 0 29.4828V26.9305C0 24.2644 2.18124 22.1498 4.84735 22.1239C5.72896 22.1145 6.52782 21.6805 7.0176 20.9816C9.26491 23.4789 8.74791 22.9043 9.57121 23.8196C9.7768 24.0478 10.1349 24.0478 10.3405 23.8196C11.0788 22.9989 10.4761 23.6686 12.8941 20.9816C13.3826 21.6787 14.1803 22.1145 15.0644 22.1239C17.7305 22.1498 19.9117 24.2644 19.9117 26.9305Z" fill="#D6F4FC"/>
<path d="M14.034 21.9078C14.0259 21.9249 13.3879 24.8276 13.3919 24.8091C13.3078 25.191 12.8244 25.3139 12.568 25.0187C10.8705 23.064 11.1021 23.3189 10.9302 23.1639L12.8942 20.9813C13.1787 21.3874 13.573 21.71 14.034 21.9078Z" fill="#E8F8FC"/>
<path d="M7.01768 20.9816L8.93516 23.1124L7.34461 24.9972C7.09041 25.2985 6.60115 25.1777 6.51633 24.7927C6.51226 24.7743 5.88601 21.925 5.87793 21.9079C6.33887 21.7102 6.73323 21.3876 7.01768 20.9816Z" fill="#E8F8FC"/>
<path d="M16.3561 13.0702C16.3561 16.6063 13.489 19.4705 9.95587 19.4705C6.42283 19.4705 3.55566 16.6064 3.55566 13.0702C3.55566 12.9667 3.55566 8.55759 3.55566 8.68152C3.55566 8.4065 3.77062 8.18088 4.04518 8.16523C5.09255 8.10556 5.97436 7.44945 6.29185 6.24899C6.38177 5.90894 6.77322 5.75404 7.0706 5.94191C9.71596 7.61301 12.73 8.58493 15.8706 8.77235C16.1436 8.78864 16.3561 9.01491 16.3561 9.28844V13.0702Z" fill="#FFEBD2"/>
<path d="M14.8622 1.94244H10.3989C8.42386 1.94244 6.63439 3.0725 5.77779 4.82964C5.68017 5.03005 5.4914 5.16581 5.27289 5.21042C4.47771 5.37334 3.87906 6.07671 3.87906 6.92038V8.203C3.68835 8.27929 3.55582 8.46547 3.55582 8.6814V11.7516C3.55582 12.4779 2.60911 12.7627 2.21889 12.1769C2.13006 12.0586 2.01641 11.8154 1.98163 11.6417C1.92325 11.3908 1.93961 11.8763 1.93961 4.98092C1.93961 4.01701 2.72121 3.23541 3.68512 3.23541C4.46795 1.2796 6.36073 0.00298413 8.45941 0.00298413C11.515 0.00298413 13.5127 -0.02016 13.6778 0.0624608C14.298 0.15646 14.867 0.384863 14.9501 0.430957C14.9704 0.439491 15.1946 0.540278 15.2042 0.549911C15.9005 0.901598 15.6438 1.94632 14.8622 1.94244Z" fill="#4D4E59"/>
<path d="M12.4857 20.0712C10.8929 20.7379 9.14256 20.7896 7.42627 20.0712C7.51393 19.7075 7.49932 19.4719 7.49932 19.0096L7.50902 18.9857C9.06589 19.6319 10.843 19.6332 12.4029 18.9857L12.4126 19.0096C12.4126 19.4721 12.398 19.7076 12.4857 20.0712Z" fill="#FFD6A6"/>
<path d="M6.21402 23.4218C3.65523 23.5381 1.61621 25.6502 1.61621 28.2375V29.9998H0.517188C0.231571 29.9998 0 29.7682 0 29.4826V26.9343C0 24.2673 2.18208 22.151 4.84903 22.1235C5.21371 22.1198 5.56145 22.0432 5.87784 21.9077C5.88592 21.9248 6.20994 23.4034 6.21402 23.4218Z" fill="#CCFEFB"/>
<path d="M13.6978 23.4218C16.2565 23.5381 18.2956 25.6502 18.2956 28.2375V29.9998H19.3946C19.6802 29.9998 19.9118 29.7682 19.9118 29.4826V26.9343C19.9118 24.2673 17.7297 22.151 15.0627 22.1235C14.6981 22.1198 14.3503 22.0432 14.0339 21.9077C14.0259 21.9248 13.7018 23.4034 13.6978 23.4218Z" fill="#BDEFFC"/>
<path d="M7.05841 23.6968C7.15474 24.1345 7.25753 24.6006 7.3448 24.9969C7.09061 25.2982 6.60135 25.1778 6.51653 24.7928C6.26795 23.6639 5.88336 21.9195 5.87793 21.908C6.33887 21.7102 6.73323 21.3876 7.01768 20.9816L7.56978 21.5957C7.09526 22.1866 6.89421 22.9527 7.05841 23.6968Z" fill="#F1FAFC"/>
<path d="M8.5442 7.36529C8.43055 8.28155 8.02869 9.10356 7.35842 9.60167C6.16501 10.4887 5.49512 11.9158 5.49512 13.4028V15.0098C5.49512 15.9684 4.27494 16.1423 3.97155 15.3444C3.7028 14.6377 3.55566 13.8712 3.55566 13.0703V8.6816C3.55566 8.40658 3.77062 8.18096 4.04518 8.16531C5.09546 8.10545 5.9752 7.44681 6.29191 6.24894C6.38177 5.90915 6.77264 5.75392 7.06983 5.9416C7.39669 6.14809 7.75232 6.35832 8.13646 6.56623C8.42473 6.72242 8.58454 7.04004 8.5442 7.36529Z" fill="#FFF3E4"/>
<path d="M10.9301 23.1639L11.8953 29.9998H8.01636L8.93501 23.1122L9.57141 23.8191C9.77687 24.0473 10.1347 24.0473 10.3401 23.8191L10.9301 23.1639Z" fill="#FE4F60"/>
<path d="M9.61059 23.8628L8.79214 29.9998H8.01636L8.93501 23.1122L9.61059 23.8628Z" fill="#E84857"/>
</svg>
