<svg width="90" height="102" viewBox="0 0 90 102" fill="none" xmlns="http://www.w3.org/2000/svg">
<path d="M77.9159 0C70.1431 0 63.842 6.30102 63.842 14.0739V42.0232H90V12.0841C90 5.41019 84.5898 0 77.9159 0V0Z" fill="#3B7CF2"/>
<path d="M65.8317 12.0841C65.8317 5.4102 71.2419 0 77.9158 0H14.9193C6.6928 0 0 6.6928 0 14.9193V98.838C0 101.53 3.28751 102.837 5.14038 100.902L8.95836 96.9149L12.9918 100.948C14.1572 102.114 16.0469 102.114 17.2123 100.949L21.0345 97.1278L24.8976 100.958C26.0615 102.111 27.937 102.111 29.1004 100.958L33.0223 97.0691L36.9459 100.958C38.1086 102.11 39.9827 102.111 41.1461 100.96L44.9265 97.219L48.6969 100.957C49.8606 102.111 51.7363 102.111 52.8999 100.958L56.8218 97.0691L60.7454 100.958C62.6261 102.821 65.8311 101.484 65.8311 98.838C65.8317 94.7043 65.8317 14.6756 65.8317 12.0841V12.0841Z" fill="#B7CDF7" fill-opacity="0.96"/>
<path d="M77.9157 0C71.242 0 65.8318 5.4102 65.8318 12.0839V98.8381C65.8318 101.484 62.6263 102.822 60.746 100.957L56.8222 97.0691L52.9003 100.957C51.7363 102.111 49.8619 102.111 48.6979 100.957L44.9273 97.2184L41.1467 100.959C39.9827 102.111 38.1083 102.111 36.9463 100.957L33.0225 97.0691V0H77.9157Z" fill="#5C91F1"/>
<path d="M35.7783 41.6142V42.2231C35.7783 43.793 34.5645 45.0824 33.0225 45.1978V36.1424C35.2409 35.9376 36.6978 33.4623 34.666 31.8763C34.2143 31.5241 33.6512 31.2356 33.0225 30.963V24.5201C34.5546 25.1628 36.6041 25.8214 38.3352 27.1685C44 31.5838 41.8312 39.517 35.7783 41.6142Z" fill="#D0D0F4"/>
<path d="M35.1058 21.5213C34.6979 21.1453 33.8403 20.9085 33.0225 20.9105V12.0918C34.5645 12.2072 35.7783 13.4966 35.7783 15.0665V15.3132C37.0498 15.6694 38.2257 16.2783 39.153 17.1339C40.3647 18.2521 40.4423 20.1404 39.3241 21.3522C38.2058 22.564 36.3175 22.6396 35.1058 21.5213V21.5213Z" fill="#D0D0F4"/>
<path d="M15.1138 56.9235H30.0371C31.6854 56.9235 33.0218 55.5872 33.0218 53.9389C33.0218 52.2906 31.6854 50.9542 30.0371 50.9542H15.1138C13.4655 50.9542 12.1292 52.2906 12.1292 53.9389C12.1292 55.5872 13.4655 56.9235 15.1138 56.9235Z" fill="#5C91F1"/>
<path d="M30.0358 62.9127H15.1026C13.4543 62.9127 12.1179 64.2491 12.1179 65.8974C12.1179 67.5457 13.4543 68.882 15.1026 68.882H30.0358C31.6842 68.882 33.0205 67.5457 33.0205 65.8974C33.0205 64.2491 31.6842 62.9127 30.0358 62.9127Z" fill="#5C91F1"/>
<path d="M30.0355 74.8315H15.0923C13.444 74.8315 12.1077 76.1678 12.1077 77.8161C12.1077 79.4645 13.444 80.8008 15.0923 80.8008H30.0355C31.6839 80.8008 33.0202 79.4645 33.0202 77.8161C33.0202 76.1678 31.6839 74.8315 30.0355 74.8315Z" fill="#5C91F1"/>
<path d="M62.9391 101.876C77.7745 101.876 89.801 89.85 89.801 75.0145C89.801 60.1791 77.7745 48.1526 62.9391 48.1526C48.1037 48.1526 36.0771 60.1791 36.0771 75.0145C36.0771 89.85 48.1037 101.876 62.9391 101.876Z" fill="#FFB454"/>
<path d="M89.8002 75.0145C89.8002 89.8264 77.7501 101.876 62.9382 101.876V48.1526C77.7501 48.1526 89.8002 60.2027 89.8002 75.0145Z" fill="#FFB454"/>
<path d="M62.939 95.9071C74.4777 95.9071 83.8316 86.5531 83.8316 75.0145C83.8316 63.4758 74.4777 54.1218 62.939 54.1218C51.4003 54.1218 42.0464 63.4758 42.0464 75.0145C42.0464 86.5531 51.4003 95.9071 62.939 95.9071Z" fill="#FFE278"/>
<path d="M83.8309 75.0145C83.8309 86.5352 74.459 95.9071 62.9382 95.9071V54.1218C74.459 54.1218 83.8309 63.4937 83.8309 75.0145Z" fill="#FFE278"/>
<path d="M63.9338 63.7448C62.2854 63.7448 60.9491 65.0811 60.9491 66.7294V72.8257H54.9078C53.2594 72.8257 51.9231 74.162 51.9231 75.8103C51.9231 77.4587 53.2594 78.795 54.9078 78.795H63.9338C65.5821 78.795 66.9184 77.4587 66.9184 75.8103V66.7294C66.9184 65.0811 65.5821 63.7448 63.9338 63.7448Z" fill="#FF8A66"/>
<path d="M66.9178 66.7291V75.8104C66.9178 77.458 65.5826 78.7951 63.9331 78.7951H62.9382V63.9156C63.2506 63.8041 63.5849 63.7444 63.9331 63.7444C65.5826 63.7444 66.9178 65.0816 66.9178 66.7291Z" fill="#F97658"/>
<path d="M38.3342 27.1684C35.4787 24.943 31.7528 24.5976 30.9207 23.0953C30.627 22.565 30.94 21.6917 31.5774 21.2631C32.4843 20.6532 34.4245 20.8936 35.1062 21.5224C36.318 22.6402 38.2063 22.5636 39.3237 21.3521C40.4414 20.1403 40.365 18.252 39.1534 17.1345C38.2262 16.2793 37.05 15.6691 35.7786 15.3129V15.0668C35.7786 13.4184 34.4422 12.0821 32.7939 12.0821C31.1456 12.0821 29.8092 13.4184 29.8092 15.0668V15.5127C25.4709 17.1383 23.6075 22.2114 25.699 25.9876C27.9072 29.9741 32.5324 30.2147 34.6651 31.8768C36.5174 33.3203 35.419 35.2409 34.0439 35.8879C32.8114 36.4678 30.3333 36.1094 28.8454 35.136C27.4661 34.2338 25.616 34.6205 24.7138 35.9998C23.8115 37.3793 24.1983 39.229 25.5776 40.1313C26.7372 40.89 28.22 41.5019 29.8094 41.8425V42.2222C29.8094 43.8705 31.1458 45.2069 32.7941 45.2069C34.4424 45.2069 35.7788 43.8705 35.7788 42.2222V41.6131C41.8303 39.5165 43.9993 31.5829 38.3342 27.1684V27.1684Z" fill="#3B7CF2"/>
</svg>
